<svg width="94" height="91" viewBox="0 0 94 91" fill="none" xmlns="http://www.w3.org/2000/svg">
<path fill-rule="evenodd" clip-rule="evenodd" d="M75.7256 14.7266H4.08697V86.3652H75.7256V14.7266ZM0 10.6396V90.4522H79.8125V10.6396H0Z" fill="#D4D4D8"/>
<path d="M93.9995 32.3684C93.9995 50.245 79.5077 64.7368 61.6311 64.7368C43.7545 64.7368 29.2627 50.245 29.2627 32.3684C29.2627 14.4918 43.7545 0 61.6311 0C79.5077 0 93.9995 14.4918 93.9995 32.3684Z" fill="#F4F4F5"/>
<path fill-rule="evenodd" clip-rule="evenodd" d="M93.7259 36.596L89.6733 36.0674C89.831 34.8586 89.9126 33.624 89.9126 32.3684C89.9126 31.1128 89.831 29.8782 89.6733 28.6694L93.7259 28.1408C93.9064 29.5244 93.9995 30.9356 93.9995 32.3684C93.9995 33.8013 93.9064 35.2124 93.7259 36.596ZM91.5434 19.9782L87.7681 21.5437C86.8156 19.2467 85.568 17.1007 84.0716 15.1533L87.3122 12.663C89.0238 14.8904 90.4522 17.3467 91.5434 19.9782ZM81.3365 6.68733L78.8462 9.92796C76.8988 8.43148 74.7528 7.18389 72.4558 6.23137L74.0213 2.45613C76.6528 3.54736 79.1091 4.97572 81.3365 6.68733ZM65.8587 0.273587L65.3301 4.32622C64.1213 4.16854 62.8867 4.08697 61.6311 4.08697C60.3755 4.08697 59.1409 4.16854 57.9321 4.32622L57.4035 0.273587C58.7871 0.0931021 60.1983 0 61.6311 0C63.064 0 64.4751 0.0931021 65.8587 0.273587ZM49.2409 2.45613L50.8064 6.23137C48.5094 7.18389 46.3634 8.43148 44.416 9.92796L41.9257 6.68733C44.1531 4.97572 46.6094 3.54736 49.2409 2.45613ZM35.95 12.663L39.1907 15.1533C37.6942 17.1007 36.4466 19.2467 35.4941 21.5437L31.7188 19.9782C32.8101 17.3467 34.2384 14.8904 35.95 12.663ZM29.5363 28.1408C29.3558 29.5244 29.2627 30.9356 29.2627 32.3684C29.2627 33.8013 29.3558 35.2124 29.5363 36.596L33.5889 36.0674C33.4312 34.8586 33.3497 33.624 33.3497 32.3684C33.3497 31.1128 33.4312 29.8782 33.5889 28.6694L29.5363 28.1408ZM31.7188 44.7586L35.4941 43.1931C36.4466 45.4901 37.6942 47.6361 39.1907 49.5835L35.95 52.0738C34.2384 49.8465 32.8101 47.3901 31.7188 44.7586ZM41.9257 58.0495L44.416 54.8089C46.3634 56.3053 48.5094 57.5529 50.8064 58.5055L49.2409 62.2807C46.6094 61.1895 44.1531 59.7611 41.9257 58.0495ZM57.4035 64.4632L57.9321 60.4106C59.1409 60.5683 60.3755 60.6499 61.6311 60.6499C62.8867 60.6499 64.1213 60.5683 65.3301 60.4106L65.8587 64.4632C64.4751 64.6437 63.064 64.7368 61.6311 64.7368C60.1983 64.7368 58.7871 64.6437 57.4035 64.4632ZM74.0213 62.2807L72.4558 58.5055C74.7528 57.5529 76.8988 56.3053 78.8462 54.8089L81.3365 58.0495C79.1092 59.7611 76.6528 61.1895 74.0213 62.2807ZM87.3122 52.0738L84.0716 49.5835C85.568 47.6361 86.8156 45.4901 87.7681 43.1931L91.5434 44.7586C90.4522 47.3901 89.0238 49.8465 87.3122 52.0738Z" fill="#D4D4D8"/>
</svg>
